<svg id="Layer_1" data-name="Layer 1" xmlns="http://www.w3.org/2000/svg" width="64" height="64" viewBox="0 0 64 64"><defs><style>.cls-1{fill:#666;}</style></defs><title>map_pin_angle_2</title><path id="map_pin_angle_2" class="cls-1" d="M59.71,24.18L39.81,4.28a1,1,0,0,0-1.41,0C36.28,6.4,35.85,10.23,37.24,14L25.4,25.82a18,18,0,0,0-8.24-2.35A7.91,7.91,0,0,0,11.4,25.6a1,1,0,0,0,0,1.42L23.48,39.1,4.29,58.29a1,1,0,1,0,1.41,1.41L24.9,40.52,37,52.6a1,1,0,0,0,1.41,0c2.94-2.94,2.83-8.25-.22-14L50,26.76a12.36,12.36,0,0,0,4.26.82h0a7.57,7.57,0,0,0,5.43-2A1,1,0,0,0,59.71,24.18ZM36.95,37L27,27l11.4-11.4,10,10ZM37.6,50.4l-12-12h0l-12-12c2.46-1.6,6.92-1,11.37,1.47L36.14,39C38.69,43.57,39.22,47.88,37.6,50.4ZM50.33,24.75L39.24,13.66c-1.09-2.65-1.08-5.41,0-7.16l18.3,18.3C55.77,25.82,52.94,25.83,50.33,24.75Z"/></svg>