<svg id="Layer_1" data-name="Layer 1" xmlns="http://www.w3.org/2000/svg" width="64" height="64" viewBox="0 0 64 64"><defs><style>.cls-1{fill:#666;}</style></defs><title>jigsaw</title><path class="cls-1" d="M49.71,22.29A1,1,0,0,0,48,23a7,7,0,1,1-7-7,1,1,0,0,0,.7-1.71l-10-10a1,1,0,0,0-1.41,0l-26,26a1,1,0,0,0,0,1.41l28,28a1,1,0,0,0,1.41,0l6.55-6.55a9,9,0,1,0,10.9-10.89l8.55-8.55a1,1,0,0,0,0-1.41Zm-1.42,20A1,1,0,0,0,49,44a7,7,0,1,1-7,7,1,1,0,0,0-.62-0.92A0.84,0.84,0,0,0,41,50a1,1,0,0,0-.71.29L33,57.59,6.41,31,31,6.41l7.85,7.85A9,9,0,1,0,49.74,25.15L57.59,33Z"/></svg>