<svg id="Layer_1" data-name="Layer 1" xmlns="http://www.w3.org/2000/svg" width="64" height="64" viewBox="0 0 64 64"><defs><style>.cls-1{fill:#666;}</style></defs><title>calendar_heart</title><path class="cls-1" d="M32,50H8a2,2,0,0,1-2-2V22H46v9a1,1,0,1,0,2,0V12a4,4,0,0,0-4-4H38V5a1,1,0,0,0-2,0V8H16V5a1,1,0,1,0-2,0V8H8a4,4,0,0,0-4,4V48a4,4,0,0,0,4,4H32A1,1,0,0,0,32,50ZM8,10h6v3a1,1,0,0,0,2,0V10H36v3a1,1,0,1,0,2,0V10h6a2,2,0,0,1,2,2v8H6V12A2,2,0,0,1,8,10Z"/><path class="cls-1" d="M27,44a1,1,0,0,0,1-1V29a1,1,0,0,0-.62-0.92,1,1,0,0,0-1.09.22l-2,2a1,1,0,1,0,1.41,1.41l0.3-.3V43A1,1,0,0,0,27,44Z"/><path class="cls-1" d="M52,34a7.88,7.88,0,0,0-5.62,2.31L46,36.65l-0.34-.31A8,8,0,0,0,34.31,47.62l11,12a1,1,0,0,0,1.48,0l10.92-12A8,8,0,0,0,52,34Zm4.21,12.28L46,57.51,35.76,46.24A6,6,0,0,1,40,36a6,6,0,0,1,4.28,1.79l1,1a1,1,0,0,0,1.34,0l1.09-1A6,6,0,0,1,58,42,6,6,0,0,1,56.21,46.28Z"/></svg>